<?xml version="1.0" encoding="utf-8"?>
<!-- Generator: Adobe Illustrator 16.0.0, SVG Export Plug-In . SVG Version: 6.00 Build 0)  -->
<!DOCTYPE svg PUBLIC "-//W3C//DTD SVG 1.1//EN" "http://www.w3.org/Graphics/SVG/1.1/DTD/svg11.dtd">
<svg version="1.1" id="svg2500" xmlns:svg="http://www.w3.org/2000/svg"
	 xmlns="http://www.w3.org/2000/svg" xmlns:xlink="http://www.w3.org/1999/xlink" x="0px" y="0px" width="1024px" height="297px"
	 viewBox="0 0 1024 297" enable-background="new 0 0 1024 297" xml:space="preserve">
<path id="path2450" d="M221.558,8.436c-8.612-0.021-18.231,0.982-28.665,3.637c0,0-53.499,13.277-112.464,68.337
	c0,0-28.116,28.507-48.032,65.214c0,0-20.696,38.269-23.82,70.289c0,0-3.124,35.927,17.182,54.28c0,0,23.43,21.478,74.585,17.182
	c0,0,32.021-3.905,66.775-25.772c0,0,16.792-10.935,27.726-21.088c0,0-5.076,18.354,2.343,31.631c0,0,7.029,12.496,23.04,15.229
	c0,0,11.715,2.343,28.506-3.905c0,0,10.543-4.686,17.573-8.2c0,0,14.448-7.81,28.506-18.744c0,0-2.733,10.935,3.515,20.306
	c0,0,7.419,10.544,21.087,11.716c0,0,36.707,2.733,87.862-60.138l-35.926,57.795l32.802-0.391l28.507-49.203
	c0,0,29.679-50.766,35.926-57.014c0,0,15.229-20.306,38.27-24.991l15.229,1.171c0,0,6.248,3.124,6.248,10.153l-11.324-1.952
	c0,0-6.638,0.78-10.153,7.81c0,0-3.125,6.638-1.562,13.276c0,0,1.952,5.468,7.028,7.42l3.514,1.172l11.324-1.563
	c0,0,19.916-7.42,47.251-41.783l-6.248,11.324l-23.04,39.441l-26.944,47.641c0,0-7.809,15.619-4.295,24.992
	c0,0,3.515,8.98,15.229,11.324l25.382-1.953c0,0,14.449-4.295,26.164-14.448l16.791-13.667c0,0,20.307-17.182,38.66-37.488
	l-1.172,1.563c0,0-16.011,29.287-18.744,39.05c0-0.001-6.248,20.696,8.201,28.896l16.4,1.563c0,0,13.668-1.952,27.335-11.716
	l22.259-19.134c0,0,19.135-17.964,29.289-30.85c0,0-5.078,11.715-6.249,20.306c0,0-3.905,27.336,21.478,38.27l23.82,1.952
	c0,0,9.373-0.78,23.82-5.857c0,0,33.584-10.935,80.834-54.279c0,0,23.82-21.868,40.613-41.394l-59.357,99.578h29.287l21.869-36.707
	l28.115-45.689c0,0,16.012-25.382,45.299-41.783c0,0,11.715-7.028,20.697-8.591c0,0,9.371-1.952,11.324,2.733
	c0,0-13.277-2.733-16.402,10.935c0,0-3.123,13.667,7.811,17.963c0,0,8.201,2.733,14.84-1.952c0,0,5.857-4.296,7.809-12.496
	c0,0,1.563-8.201-2.342-14.059c0,0-4.686-7.028-15.621-7.81c0,0-12.105-0.39-36.316,15.62c0,0-17.963,11.715-25.383,19.134
	l19.916-33.973h-29.678c0,0-28.115,47.641-77.709,88.644c0,0-48.422,39.439-75.758,40.611c0,0-26.555,1.953-29.287-18.354
	c0,0-1.563-12.105,5.467-29.287c0,0,16.4,1.562,38.27-5.467c0,0,20.695-6.639,37.877-18.354c0,0,18.354-12.496,24.992-25.773
	c0,0,7.811-14.839-1.17-27.335c0,0-16.402-16.01-51.938-1.172c0,0-36.707,15.229-64.043,51.546l-7.027,10.544l-0.781,1.171
	l-19.526,22.649l-19.915,19.916c0-0.001-24.211,23.82-36.316,16.791c0,0-4.687-3.124-4.687-10.544c0,0,0-7.419,5.467-16.4
	l56.623-98.406h-25.383c0,0-14.058,23.039-30.459,44.908c0,0-32.021,42.564-66.775,67.166c0,0-23.82,18.354-37.098,12.105
	c0,0-5.857-2.734-5.467-10.153c0,0,0.391-8.2,8.2-19.524l55.451-94.502l30.85-0.391l3.905-3.904h-31.24l33.192-58.966l-28.116,0.391
	c0,0-19.524,33.193-34.364,53.108c0,0-27.335,35.926-49.983,45.688c0,0,3.904-5.076,4.295-12.887l-0.391-6.247
	c0,0-1.562-8.2-9.371-12.105l-7.029-1.953l-13.277,1.172c0,0-15.62,3.515-30.068,16.011l12.105-20.307h-28.116
	c0,0-25.383,45.299-58.575,83.958c0,0-43.346,49.983-67.166,44.126c0,0-7.029-3.514-7.419-12.105c0,0,0-8.591,7.419-20.696
	l56.623-95.672l-28.116,0.39l-8.981,15.62l-5.857,11.325c0,0,1.171-3.516,0-10.935c0,0-2.344-17.572-19.135-21.086l-13.277-1.172
	c0,0-33.583-0.39-71.852,33.193c0,0-26.164,23.43-46.079,58.965c0,0-39.831,37.098-82.005,45.299c0,0-37.488,7.81-53.499-8.982
	c0,0-17.573-17.963-17.573-49.203c0,0,0.391-37.098,26.945-87.471c0,0,28.116-41.393,45.298-60.137c0,0,43.736-48.032,89.034-60.137
	c0,0,37.098-9.762,57.794,7.029c0,0,17.573,14.448,19.135,43.736l10.153-17.182c0,0,12.887-20.306,24.211-32.021
	c0,0-10.544,4.686-23.43,6.248c0,0-16.011,1.953-23.821-2.733C267.088,19.492,249.692,8.504,221.558,8.436z M316.926,146.429
	c11.441,0.058,17.328,5.443,17.328,5.443c13.668,12.495,2.733,35.926,2.733,35.926c-21.087,43.736-51.936,70.289-51.936,70.29
	l-18.744,13.276c-29.288,14.449-41.784,4.296-41.784,4.296c-10.153-8.591-5.857-28.116-5.857-28.116
	c2.733-13.277,13.667-32.412,13.667-32.411l21.087-30.85c19.135-21.087,41.002-32.021,41.002-32.021
	C303.417,147.833,310.933,146.399,316.926,146.429z M819.27,149.87c0.393-0.005,0.779,0.013,1.158,0.049
	c0,0,6.248,0.781,8.982,3.905c0,0,2.732,3.905,1.951,11.715c0,0-1.951,20.696-24.992,40.222c0,0-26.162,22.258-56.621,21.478
	l5.857-12.105c0-0.001,13.277-25.773,32.801-45.688C788.406,169.444,807.096,150.02,819.27,149.87z"/>
<path id="path2454" d="M679.023,84.659c0,0,0,5.077,3.905,8.982c0,0,3.515,3.514,8.981,3.514c0,0,5.076,0,8.591-3.514
	c0,0,3.515-3.905,3.515-8.982l-3.515-8.981c0,0-3.905-3.514-8.591-3.514c0,0-5.467,0-8.981,3.514
	C682.929,75.677,679.023,79.192,679.023,84.659"/>
</svg>
