<?xml version="1.0" encoding="utf-8"?>
<!-- Generator: Adobe Illustrator 16.0.0, SVG Export Plug-In . SVG Version: 6.00 Build 0)  -->
<!DOCTYPE svg PUBLIC "-//W3C//DTD SVG 1.1//EN" "http://www.w3.org/Graphics/SVG/1.1/DTD/svg11.dtd">
<svg version="1.1" id="Layer_1" xmlns="http://www.w3.org/2000/svg" xmlns:xlink="http://www.w3.org/1999/xlink" x="0px" y="0px"
	 width="85.041px" height="31.496px" viewBox="201.259 -0.103 85.041 31.496" enable-background="new 201.259 -0.103 85.041 31.496"
	 xml:space="preserve">
<g>
	<g>
		<g>
			<path fill="#77411D" d="M286.301,15.635c-3.393-0.218-10.596-0.582-21.232-0.68c-4.078-4.017-12.313-11.719-14.334-13.426
				c-2.186-1.791-3.291-1.338-4.695-0.662c-9.364,4.515-27.263,13.296-27.263,13.296c-0.131,0.055-0.757,0.312-1.056,0.856
				c-8.038,0.145-13.604,0.432-16.46,0.615c2.836,0.164,8.863,0.438,16.486,0.607c0.31,0.495,0.911,0.809,1.03,0.884
				c0,0,17.9,8.781,27.263,13.297c1.404,0.676,2.51,1.129,4.695-0.66c2.023-1.709,10.27-9.42,14.344-13.434
				C274.91,16.187,282.898,15.832,286.301,15.635z M220.122,14.25c0,0,16.847-8.265,25.66-12.514
				c1.32-0.637,2.363-1.063,4.418,0.623c1.895,1.598,9.584,8.791,13.441,12.586c-2.014-0.01-5.492-0.011-9.906-0.004
				c-2.24-2.288-6.254-6.205-7.273-7.105c-1.156-0.988-1.742-0.738-2.487-0.365c-4.956,2.498-14.433,7.355-14.433,7.355
				c-0.029,0.013-0.109,0.055-0.2,0.111c-3.009-0.001-5.256,0.004-6.432,0.014c-1.299,0.011-2.545,0.026-3.743,0.045
				C219.46,14.526,220.003,14.299,220.122,14.25z M243.78,16.317c3.07,0.013,5.945,0.021,8.542,0.027
				c-2.006,2.044-5.5,5.453-6.395,6.244c-1.029,0.879-1.549,0.656-2.211,0.324c-4.403-2.221-12.829-6.539-12.829-6.539
				c-0.005-0.004-0.025-0.016-0.034-0.021C234.408,16.35,238.848,16.338,243.78,16.317z M230.845,14.938
				c0.013-0.006,0.036-0.018,0.042-0.021c0,0,8.424-4.318,12.829-6.538c0.663-0.333,1.182-0.555,2.211,0.324
				c0.895,0.791,4.385,4.197,6.391,6.241c-2.602,0.005-5.479,0.013-8.539,0.024C238.866,14.951,234.423,14.941,230.845,14.938z
				 M250.199,28.933c-2.055,1.686-3.098,1.258-4.418,0.623c-8.812-4.252-25.66-12.517-25.66-12.517
				c-0.107-0.067-0.621-0.339-0.922-0.766c1.192,0.023,2.418,0.044,3.675,0.062c1,0.014,3.302,0.02,6.498,0.019
				c0.078,0.055,0.145,0.096,0.169,0.111c0,0,9.478,4.856,14.433,7.356c0.745,0.373,1.331,0.623,2.487-0.365
				c1.02-0.902,5.035-4.82,7.275-7.107c4.5,0.008,8.004,0.007,9.908-0.005C259.789,20.138,252.094,27.333,250.199,28.933z"/>
			<path fill="#77411D" d="M267,23.021c-1.658,0-3,1.342-3,3c0,1.656,1.342,3,3,3c1.656,0,3-1.344,3-3
				C270,24.362,268.656,23.021,267,23.021z M267,28.147c-1.174,0-2.127-0.953-2.127-2.127c0-1.176,0.953-2.125,2.127-2.125
				s2.125,0.949,2.125,2.125C269.125,27.194,268.174,28.147,267,28.147z"/>
			<path fill="#77411D" d="M267,8.27c1.656,0,3-1.344,3-3c0-1.658-1.344-2.998-3-2.998c-1.658,0-3,1.34-3,2.998
				C264,6.926,265.342,8.27,267,8.27z M267,3.144c1.174,0,2.125,0.951,2.125,2.126c0,1.174-0.951,2.126-2.125,2.126
				s-2.127-0.952-2.127-2.126C264.873,4.095,265.826,3.144,267,3.144z"/>
		</g>
	</g>
</g>
</svg>
